<svg xmlns="http://www.w3.org/2000/svg" viewBox="0 0 512 512" width="512" height="512"><path fill="#55815D" d="M473.4 334.8l-1.3-4.8c-10.4-38.3-24.3-81.2-41.5-127.3-7.5-20.1-15.6-40.7-24.1-61.9-8.4-20.9-17.5-42.3-27.1-63.7-18.4-40.4-38-78.2-57.1-110C315.8-4.2 308.7.6 304.8.6c-4.3 0-11 5.3-20.1 23.4-18.6 37-37.4 80.9-55.3 128.4-5.3 14-10.5 28.5-15.6 43.4-5.1 14.8-10.1 29.8-15 45-12.8 39.5-24.3 80.6-34 122.1l-1.2 5c-19.4 6.8-49.3 22.1-71.1 63.8-3.4 6.5-4.4 13.9-2.9 21.1 1.5 7.2 5.5 13.5 11.1 17.8 11.2 8.7 26.5 11.6 40.5 7.6 22-6.2 41.5-22.1 57.6-47.3 1.3 5.4 2.8 10.8 4.6 16.3 3.6 11.1 10.9 20.3 20.6 26.1 15.5 9.3 35.8 8.1 50.1-3 1.3 1.4 2.7 2.8 4 4.3 6.9 7.4 16.4 11.6 26.5 11.6h5c10 0 19.5-4.1 26.5-11.3 1.5-1.5 2.9-3.1 4.3-4.7 14.2 11.1 34.6 12.3 50.1 3 9.7-5.8 17-15 20.6-26.1 1.7-5.5 3.3-10.9 4.6-16.3 16.1 25.2 35.6 41.1 57.6 47.3 14 4 29.3 1.1 40.5-7.6 5.6-4.3 9.6-10.6 11.1-17.8 1.5-7.2.5-14.6-2.9-21.1-21.8-41.6-51.6-57-71-63.8z"/><path fill="#D2F1A5" d="M386.4 219.8l-15.3-38.3c-2.4-6-8.2-9.9-14.7-9.9H256v63.9h63.9v38.3c0 10.6 8.6 19.2 19.2 19.2h38.3c5.3 0 10.1-2.1 13.5-5.6 3.5-3.5 5.7-8.2 5.7-13.6v-54l.1-.1c0-14.1-21.8-14.1-21.8 0 .1.1-.1.1-.1.1z"/><circle cx="256.5" cy="116" r="32.5" fill="#55815D"/></svg>
